HIERARCHY
ROOT Hips
{
	OFFSET 0.00000 0.00000 0.00000
	CHANNELS 6 Xposition Yposition Zposition Zrotation Yrotation Xrotation 
	JOINT RightUpLegDummy
	{
		OFFSET 0 0 0
		CHANNELS 3 Zrotation Yrotation Xrotation
		JOINT RightUpLeg
		{
			OFFSET -3.52197 -3.41223 0.04002
			CHANNELS 3 Zrotation Yrotation Xrotation
			JOINT RightLeg
			{
				OFFSET -1.06336 -17.58347 1.60435
				CHANNELS 3 Zrotation Yrotation Xrotation
				JOINT RightFoot
				{
					OFFSET -0.27018 -17.05419 -1.63900
					CHANNELS 3 Zrotation Yrotation Xrotation
					JOINT RightToes
					{
						OFFSET 0.00298 -1.73825 3.34613
						CHANNELS 3 Zrotation Yrotation Xrotation
						End Site
						{
							OFFSET 0.00480 -0.05416 3.85043
						}
					}
				}
			}
		}
	}
	JOINT SpineDummy
	{
		OFFSET 0 0 0
		CHANNELS 3 Zrotation Yrotation Xrotation
		JOINT Spine
		{
			OFFSET 0.00000 4.14613 0.00000
			CHANNELS 3 Zrotation Yrotation Xrotation
			JOINT Spine1
			{
				OFFSET 0.00000 10.93369 0.05002
				CHANNELS 3 Zrotation Yrotation Xrotation
				JOINT HEadDummy
				{
					OFFSET 0 0 0
					CHANNELS 3 Zrotation Yrotation Xrotation
					JOINT Head
					{
						OFFSET 0.00000 5.52901 0.00438
						CHANNELS 3 Zrotation Yrotation Xrotation
						End Site
						{
							OFFSET -0.11417 7.29012 0.98962
						}
					}
				}
				JOINT LeftShoulder1Dummy
				{
					OFFSET 0 0 0
					CHANNELS 3 Zrotation Yrotation Xrotation
					JOINT LeftShoulder1
					{
						OFFSET 3.53937 -0.14262 -0.08662
						CHANNELS 3 Zrotation Yrotation Xrotation
						JOINT LeftArm
						{
							OFFSET 4.04833 -0.00133 0.12681
							CHANNELS 3 Zrotation Yrotation Xrotation
							JOINT LeftForeArm
							{
								OFFSET 9.67557 0.03289 -0.56117
								CHANNELS 3 Zrotation Yrotation Xrotation
								JOINT LeftHand
								{
									OFFSET 10.17679 0.06873 0.40307
									CHANNELS 3 Zrotation Yrotation Xrotation
									End Site
									{
										OFFSET 6.59293 -0.21483 0.59213
									}
								}
							}
						}
					}
				}
				JOINT RightShoulderDummy
				{
					OFFSET 0 0 0
					CHANNELS 3 Zrotation Yrotation Xrotation
					JOINT RightShoulder
					{
						OFFSET -3.53937 -0.14262 -0.08660
						CHANNELS 3 Zrotation Yrotation Xrotation
						JOINT RightArm
						{
							OFFSET -4.04833 -0.00132 0.12683
							CHANNELS 3 Zrotation Yrotation Xrotation
							JOINT RightForeArm
							{
								OFFSET -9.67570 0.03289 -0.56114
								CHANNELS 3 Zrotation Yrotation Xrotation
								JOINT RightHand
								{
									OFFSET -10.17679 0.06867 0.40304
									CHANNELS 3 Zrotation Yrotation Xrotation
									End Site
									{
										OFFSET -6.54841 -0.21495 0.59212
									}
								}
							}
						}
					}
				}
			}
		}
	}
	JOINT LeftUpLegDummy
	{
		OFFSET 0 0 0
		CHANNELS 3 Zrotation Yrotation Xrotation
		JOINT LeftUpLeg
		{
			OFFSET 3.52197 -3.41223 0.04002
			CHANNELS 3 Zrotation Yrotation Xrotation
			JOINT LeftLeg
			{
				OFFSET 1.08359 -17.35354 1.60336
				CHANNELS 3 Zrotation Yrotation Xrotation
				JOINT LeftFoot
				{
					OFFSET 0.24986 -17.28405 -1.63802
					CHANNELS 3 Zrotation Yrotation Xrotation
					JOINT LeftToes
					{
						OFFSET -0.01575 -1.73822 3.34610
						CHANNELS 3 Zrotation Yrotation Xrotation
						End Site
						{
							OFFSET 0.03150 -0.01868 3.85031
						}
					}
				}
			}
		}
	}
}
MOTION
Frames: 9
Frame Time: 0.033333
6.7397 41.1801 0.0585 19.9805 -84.8561 -20.9566 0.0000 0.0000 0.0000 -8.9493 -10.1879 2.1176 -0.7647 9.3090 -0.0691 -2.7591 0.2690 0.8674 -0.0000 -0.0000 0.0000 0.0000 0.0000 0.0000 -2.4114 -0.3440 4.7665 -1.2970 -0.2117 -3.2034 0.0000 0.0000 0.0000 0.9122 -3.6510 3.2763 0.0000 0.0000 0.0000 -5.0859 -1.4550 0.6448 16.7149 -27.7385 -8.0033 -6.3571 5.5946 7.6274 0.2477 -2.8758 0.0034 0.0000 0.0000 0.0000 2.4092 -0.9279 0.2764 -2.6897 2.5892 -6.0195 3.8102 -0.9384 9.2352 -2.5331 -1.4161 -0.0809 0.0000 0.0000 0.0000 4.0156 6.2900 0.9041 0.4628 -1.6524 1.6804 6.0489 -0.4743 -2.4807 0.0000 0.0000 -0.0000
6.7465 41.1794 0.0550 20.0374 -84.8800 -21.0438 0.0000 0.0000 0.0000 -8.9381 -10.1710 2.1274 -0.7750 9.3310 -0.0518 -2.6854 0.2644 0.8134 -0.0000 -0.0000 0.0000 0.0000 0.0000 0.0000 -2.3946 -0.3277 4.8646 -1.3522 -0.1901 -3.3500 0.0000 0.0000 0.0000 0.9207 -3.7228 3.4150 0.0000 0.0000 0.0000 -5.0680 -1.4591 0.6448 16.6559 -27.6915 -7.9729 -6.3304 5.5951 7.8615 0.1654 -2.9511 0.0091 0.0000 0.0000 0.0000 2.4431 -0.8992 0.2756 -2.7076 2.5143 -5.9175 3.8344 -0.9162 9.2072 -2.5582 -1.4415 -0.0809 0.0000 0.0000 0.0000 4.0240 6.2990 0.9044 0.4555 -1.6714 1.7241 6.1522 -0.4809 -2.4994 0.0000 0.0000 -0.0000
6.7487 41.1757 0.0497 19.6502 -84.8635 -20.6609 0.0000 0.0000 0.0000 -8.8944 -10.1290 2.1326 -0.7930 9.2517 -0.0385 -2.6006 0.2591 0.7691 -0.0000 -0.0000 0.0000 0.0000 0.0000 0.0000 -2.3735 -0.3010 4.8620 -1.3690 -0.1635 -3.4478 0.0000 0.0000 0.0000 0.9162 -3.8207 3.5650 0.0000 0.0000 0.0000 -5.1607 -1.4998 0.6448 16.6695 -27.7041 -7.9267 -6.3433 5.5953 8.1718 0.3572 -3.0641 -0.0030 0.0000 0.0000 0.0000 2.4140 -0.9419 0.2711 -2.6558 2.3921 -5.8825 3.8242 -0.7975 9.1054 -2.5634 -1.5057 -0.0812 0.0000 0.0000 0.0000 4.0446 6.3051 0.8446 0.4761 -1.6703 1.8107 6.1444 -0.4804 -2.5076 0.0000 0.0000 -0.0000
6.7475 41.1769 0.0497 19.5227 -84.8787 -20.5521 0.0000 0.0000 0.0000 -8.8780 -10.1269 2.1069 -0.7729 9.2916 0.0383 -2.7669 0.2698 0.7818 -0.0000 -0.0000 0.0000 0.0000 0.0000 0.0000 -2.2205 -0.2770 4.7567 -1.5548 -0.1036 -3.3599 0.0000 0.0000 0.0000 0.9849 -3.9689 3.6304 0.0000 0.0000 0.0000 -5.1377 -1.4834 0.6448 16.6827 -27.7967 -8.1491 -6.2955 5.5957 8.3505 0.1825 -3.0716 0.0086 0.0000 0.0000 0.0000 2.3499 -0.9913 0.2644 -2.4827 2.3196 -5.8631 3.8061 -0.7016 9.1433 -2.5299 -1.5677 -0.0819 0.0000 0.0000 0.0000 4.0396 6.2933 0.8769 0.5110 -1.5306 1.7656 6.0902 -0.4769 -2.4896 0.0000 0.0000 -0.0000
6.7491 41.1773 0.0480 19.5870 -84.8891 -20.5992 0.0000 0.0000 0.0000 -8.8613 -10.1008 2.0693 -0.7925 9.2618 0.0670 -2.7546 0.2691 0.7467 -0.0000 -0.0000 0.0000 0.0000 0.0000 0.0000 -2.2146 -0.2427 4.6713 -1.5295 -0.0710 -3.3554 0.0000 0.0000 0.0000 0.9157 -3.9050 3.6800 0.0000 0.0000 0.0000 -5.1844 -1.4643 0.6448 16.6263 -27.7602 -8.2443 -6.2162 5.5963 8.5006 0.0409 -2.9218 0.0173 0.0000 0.0000 0.0000 2.2996 -1.0206 0.2602 -2.5243 2.2795 -5.6074 3.8857 -0.6727 9.0286 -2.5677 -1.6518 -0.0822 0.0000 0.0000 0.0000 4.0726 6.3125 0.8638 0.4768 -1.6614 1.8082 6.0576 -0.4748 -2.5330 0.0000 0.0000 -0.0000
6.7512 41.1767 0.0493 19.8135 -84.8294 -20.8802 0.0000 0.0000 0.0000 -8.9247 -10.1423 2.1113 -0.7914 9.2308 0.1254 -2.7056 0.2654 0.6719 -0.0000 -0.0000 0.0000 0.0000 0.0000 0.0000 -2.0900 -0.2661 4.7033 -1.7312 -0.0605 -3.3995 0.0000 0.0000 0.0000 0.9260 -3.7128 3.6226 0.0000 0.0000 0.0000 -5.1315 -1.4734 0.6463 16.6057 -27.7421 -8.1071 -6.2687 5.5958 8.2061 0.0898 -2.8397 0.0110 0.0000 0.0000 0.0000 2.2710 -1.0900 0.2523 -2.4145 2.3102 -5.7112 3.8590 -0.6913 9.0761 -2.5888 -1.5983 -0.0816 0.0000 0.0000 0.0000 4.0182 6.2642 0.9122 0.4942 -1.6505 1.7931 6.0358 -0.4734 -2.5282 0.0000 0.0000 -0.0000
6.7512 41.1747 0.0536 19.7950 -84.7320 -20.9042 0.0000 0.0000 0.0000 -8.9765 -10.1800 2.1920 -0.7978 9.2157 0.1148 -2.6519 0.2589 0.6804 -0.0000 -0.0000 0.0000 0.0000 0.0000 0.0000 -1.9745 -0.3150 4.6793 -1.8962 -0.0809 -3.3756 0.0000 0.0000 0.0000 0.8835 -3.7844 3.6749 0.0000 0.0000 0.0000 -5.0973 -1.4755 0.6446 16.5715 -27.6647 -8.0405 -6.2584 5.5958 8.1573 -0.0110 -3.0275 0.0077 0.0000 0.0000 0.0000 2.2195 -1.1268 0.2474 -2.3233 2.3022 -5.8074 3.8070 -0.6045 9.2388 -2.5306 -1.6178 -0.0822 0.0000 0.0000 0.0000 3.9556 6.2457 0.9414 0.4925 -1.5416 1.7393 6.0808 -0.4763 -2.4867 0.0000 0.0000 -0.0000
6.7490 41.1726 0.0521 19.0878 -84.6295 -20.2751 0.0000 0.0000 0.0000 -8.9495 -10.1483 2.3472 -0.8459 9.0856 0.0298 -2.6445 0.2560 0.7699 -0.0000 -0.0000 0.0000 0.0000 0.0000 0.0000 -1.9375 -0.3512 4.4564 -1.8609 -0.1138 -2.9964 0.0000 0.0000 0.0000 0.9666 -3.6855 3.4836 0.0000 0.0000 0.0000 -4.9948 -1.3886 0.6289 16.4379 -27.7697 -8.1847 -6.2225 5.5961 8.2238 0.0785 -3.0787 0.0077 0.0000 0.0000 0.0000 2.1445 -1.1619 0.2422 -2.2989 2.4150 -5.9183 3.7905 -0.7121 9.2644 -2.5199 -1.5394 -0.0818 0.0000 0.0000 0.0000 3.9691 6.2920 0.9517 0.4890 -1.5927 1.8031 6.2432 -0.4867 -2.5052 0.0000 0.0000 -0.0000
6.7534 41.1709 0.0569 18.8532 -84.4940 -20.1573 0.0000 0.0000 0.0000 -8.9993 -10.1396 2.5505 -0.9126 8.9943 -0.0798 -2.4612 0.2421 0.8519 -0.0000 -0.0000 0.0000 0.0000 0.0000 0.0000 -1.9676 -0.4064 4.4904 -1.8428 -0.1740 -2.9016 0.0000 0.0000 0.0000 0.9394 -3.6483 3.3027 0.0000 0.0000 0.0000 -5.0645 -1.4350 0.6379 16.4665 -27.6575 -8.2215 -6.1823 5.5965 8.3565 0.0952 -3.0848 0.0150 0.0000 0.0000 0.0000 2.3503 -1.0694 0.2562 -2.5126 2.3954 -6.0454 3.7701 -0.7507 9.1118 -2.6259 -1.5438 -0.0779 0.0000 0.0000 0.0000 3.9778 6.3040 1.0611 0.4422 -1.8746 1.8220 6.2821 -0.4892 -2.5566 0.0000 0.0000 -0.0000
